<svg version="1" xmlns="http://www.w3.org/2000/svg" width="682.667" height="682.667" viewBox="0 0 512.000000 512.000000"><path d="M0 256v256h512V0H0v256zm146-147.7v28.4l8.2 1.2c20.6 3.2 42.1 13.4 59.1 28.3l3.8 3.3-13.3 13.2-13.3 13.3-8-6c-8.8-6.6-23.1-14.1-31.2-16.4l-5.3-1.5v84.4l12.8 6.4c41.1 20.4 57.3 41.6 57.2 74.9-.1 21.1-6.2 37.5-18.4 49.2-10 9.7-26.3 17.1-43.9 20.1l-7.7 1.3V466h-26v-56h-2.7c-7.5-.1-28.1-2.2-38.3-4.1-10.6-1.8-35.5-9.3-36.5-10.8-.2-.4.7-9 2.1-19.2 1.3-10.1 2.4-18.5 2.4-18.6 0-.1 2.1.7 4.7 1.8 18 7.9 50.5 15.9 64.6 15.9h3.7v-86l-13.6-6.5c-36.4-17.3-52.9-36-56.4-64-1.9-15.6 1-34.1 7.5-46.3 9.4-17.9 26.9-29.9 49.4-33.9 4.7-.8 9.6-1.7 10.9-1.9l2.2-.4V80h26v28.3z"/><path d="M112.9 172.9c-15.1 4.8-22.8 15.8-23.1 32.6-.1 14.3 3.3 21.3 14.6 29.9 4.5 3.4 13.6 8.6 15.1 8.6.3 0 .5-16.4.5-36.5s-.3-36.5-.7-36.4c-.5 0-3.3.8-6.4 1.8zM146 337.1v36.1l2.8-.7c6.1-1.5 14.2-5.9 18-9.8 6.6-6.8 8.6-12.4 8.7-24.2 0-8.7-.3-10.7-2.6-15.5-3.3-7.1-10.3-13.9-18.9-18.4-3.7-2-7.1-3.6-7.4-3.6-.3 0-.6 16.2-.6 36.1z"/></svg>